<?xml version="1.0" encoding="UTF-8" standalone="no"?>
<!DOCTYPE svg PUBLIC "-//W3C//DTD SVG 1.1//EN"
 "http://www.w3.org/Graphics/SVG/1.1/DTD/svg11.dtd">
<!-- Generated by graphviz version 2.40.1 (20161225.0304)
 -->
<!-- Title: dependencies Pages: 1 -->
<svg width="3953pt" height="439pt"
 viewBox="0.00 0.00 3953.00 439.00" xmlns="http://www.w3.org/2000/svg" xmlns:xlink="http://www.w3.org/1999/xlink">
<g id="graph0" class="graph" transform="scale(1 1) rotate(0) translate(4 435)">
<title>dependencies</title>
<polygon fill="#ffffff" stroke="transparent" points="-4,4 -4,-435 3949,-435 3949,4 -4,4"/>
<text text-anchor="start" x="1951.5091" y="-42.4" font-family="sans-serif" font-weight="bold" font-size="14.00" fill="#000000">Legend</text>
<polygon fill="#ffffb3" stroke="transparent" points="1738.5,-10 1738.5,-30 1758.5,-30 1758.5,-10 1738.5,-10"/>
<text text-anchor="start" x="1762.129" y="-15.4" font-family="sans-serif" font-size="14.00" fill="#000000"> &#160;Declarations</text>
<polygon fill="#8dd3c7" stroke="transparent" points="1851.5,-10 1851.5,-30 1871.5,-30 1871.5,-10 1851.5,-10"/>
<text text-anchor="start" x="1875.2251" y="-15.4" font-family="sans-serif" font-size="14.00" fill="#000000"> &#160;Module</text>
<polygon fill="#80b1d3" stroke="transparent" points="1937.5,-10 1937.5,-30 1957.5,-30 1957.5,-10 1937.5,-10"/>
<text text-anchor="start" x="1961.2812" y="-15.4" font-family="sans-serif" font-size="14.00" fill="#000000"> &#160;Bootstrap</text>
<polygon fill="#fdb462" stroke="transparent" points="2034.5,-10 2034.5,-30 2054.5,-30 2054.5,-10 2034.5,-10"/>
<text text-anchor="start" x="2058.1732" y="-15.4" font-family="sans-serif" font-size="14.00" fill="#000000"> &#160;Providers</text>
<polygon fill="#fb8072" stroke="transparent" points="2130.5,-10 2130.5,-30 2150.5,-30 2150.5,-10 2130.5,-10"/>
<text text-anchor="start" x="2154.2258" y="-15.4" font-family="sans-serif" font-size="14.00" fill="#000000"> &#160;Exports</text>
<g id="clust1" class="cluster">
<title>cluster_AppModule</title>
<polygon fill="none" stroke="#000000" stroke-dasharray="1,5" points="1392,-146 1392,-423 3615,-423 3615,-146 1392,-146"/>
</g>
<g id="clust2" class="cluster">
<title>cluster_AppModule_declarations</title>
<polygon fill="none" stroke="#000000" points="2672,-222 2672,-274 3607,-274 3607,-222 2672,-222"/>
</g>
<g id="clust9" class="cluster">
<title>cluster_AppModule_imports</title>
<polygon fill="none" stroke="#000000" points="1548,-154 1548,-274 2664,-274 2664,-154 1548,-154"/>
</g>
<g id="clust11" class="cluster">
<title>cluster_AppModule_bootstrap</title>
<polygon fill="none" stroke="#000000" points="3118,-363 3118,-415 3242,-415 3242,-363 3118,-363"/>
</g>
<g id="clust12" class="cluster">
<title>cluster_AppModule_providers</title>
<polygon fill="none" stroke="#000000" points="1400,-222 1400,-274 1540,-274 1540,-222 1400,-222"/>
</g>
<g id="clust13" class="cluster">
<title>cluster_AppServerModule</title>
<polygon fill="none" stroke="#000000" stroke-dasharray="1,5" points="3623,-290 3623,-415 3937,-415 3937,-290 3623,-290"/>
</g>
<g id="clust15" class="cluster">
<title>cluster_AppServerModule_imports</title>
<polygon fill="none" stroke="#000000" points="3631,-298 3631,-350 3929,-350 3929,-298 3631,-298"/>
</g>
<g id="clust19" class="cluster">
<title>cluster_ComponentsModule</title>
<polygon fill="none" stroke="#000000" stroke-dasharray="1,5" points="117,-70 117,-138 2830,-138 2830,-70 117,-70"/>
</g>
<g id="clust20" class="cluster">
<title>cluster_ComponentsModule_declarations</title>
<polygon fill="none" stroke="#000000" points="1423,-78 1423,-130 2686,-130 2686,-78 1423,-78"/>
</g>
<g id="clust29" class="cluster">
<title>cluster_ComponentsModule_imports</title>
<polygon fill="none" stroke="#000000" points="2694,-78 2694,-130 2822,-130 2822,-78 2694,-78"/>
</g>
<g id="clust30" class="cluster">
<title>cluster_ComponentsModule_exports</title>
<polygon fill="none" stroke="#000000" points="125,-78 125,-130 1415,-130 1415,-78 125,-78"/>
</g>
<g id="clust33" class="cluster">
<title>cluster_ProjectsRoutingModule</title>
<polygon fill="none" stroke="#000000" stroke-dasharray="1,5" points="3623,-70 3623,-282 3837,-282 3837,-70 3623,-70"/>
</g>
<g id="clust35" class="cluster">
<title>cluster_ProjectsRoutingModule_imports</title>
<polygon fill="none" stroke="#000000" points="3631,-78 3631,-130 3829,-130 3829,-78 3631,-78"/>
</g>
<g id="clust36" class="cluster">
<title>cluster_ProjectsRoutingModule_exports</title>
<polygon fill="none" stroke="#000000" points="3639,-222 3639,-274 3757,-274 3757,-222 3639,-222"/>
</g>
<g id="clust39" class="cluster">
<title>cluster_ProjectsModule</title>
<polygon fill="none" stroke="#000000" stroke-dasharray="1,5" points="8,-146 8,-214 1384,-214 1384,-146 8,-146"/>
</g>
<g id="clust40" class="cluster">
<title>cluster_ProjectsModule_declarations</title>
<polygon fill="none" stroke="#000000" points="320,-154 320,-206 1376,-206 1376,-154 320,-154"/>
</g>
<g id="clust50" class="cluster">
<title>cluster_ProjectsModule_providers</title>
<polygon fill="none" stroke="#000000" points="16,-154 16,-206 312,-206 312,-154 16,-154"/>
</g>
<g id="clust51" class="cluster">
<title>cluster_RoutingModule</title>
<polygon fill="none" stroke="#000000" stroke-dasharray="1,5" points="2838,-70 2838,-138 3048,-138 3048,-70 2838,-70"/>
</g>
<g id="clust53" class="cluster">
<title>cluster_RoutingModule_imports</title>
<polygon fill="none" stroke="#000000" points="2846,-78 2846,-130 3040,-130 3040,-78 2846,-78"/>
</g>
<!-- AppComponent -->
<g id="node1" class="node">
<title>AppComponent</title>
<polygon fill="#ffffb3" stroke="#000000" points="3598.9399,-266 3493.0601,-266 3493.0601,-230 3598.9399,-230 3598.9399,-266"/>
<text text-anchor="middle" x="3546" y="-243.8" font-family="Times,serif" font-size="14.00" fill="#000000">AppComponent</text>
</g>
<!-- AppModule -->
<g id="node7" class="node">
<title>AppModule</title>
<polygon fill="#8dd3c7" stroke="#000000" points="2751.6571,-342 2748.6571,-346 2727.6571,-346 2724.6571,-342 2668.3429,-342 2668.3429,-306 2751.6571,-306 2751.6571,-342"/>
<text text-anchor="middle" x="2710" y="-319.8" font-family="Times,serif" font-size="14.00" fill="#000000">AppModule</text>
</g>
<!-- AppComponent&#45;&gt;AppModule -->
<g id="edge1" class="edge">
<title>AppComponent&#45;&gt;AppModule</title>
<path fill="none" stroke="#000000" d="M3546,-266.3802C3546,-290.2785 3546,-329 3546,-329 3546,-329 2761.7434,-329 2761.7434,-329"/>
<polygon fill="#000000" stroke="#000000" points="2761.7434,-325.5001 2751.7434,-329 2761.7434,-332.5001 2761.7434,-325.5001"/>
</g>
<!-- AboutComponent -->
<g id="node2" class="node">
<title>AboutComponent</title>
<polygon fill="#ffffb3" stroke="#000000" points="3475.3301,-266 3358.6699,-266 3358.6699,-230 3475.3301,-230 3475.3301,-266"/>
<text text-anchor="middle" x="3417" y="-243.8" font-family="Times,serif" font-size="14.00" fill="#000000">AboutComponent</text>
</g>
<!-- AboutComponent&#45;&gt;AppModule -->
<g id="edge2" class="edge">
<title>AboutComponent&#45;&gt;AppModule</title>
<path fill="none" stroke="#000000" d="M3417,-266.0109C3417,-288.4852 3417,-324 3417,-324 3417,-324 2761.8473,-324 2761.8473,-324"/>
<polygon fill="#000000" stroke="#000000" points="2761.8474,-320.5001 2751.8473,-324 2761.8473,-327.5001 2761.8474,-320.5001"/>
</g>
<!-- LandingComponent -->
<g id="node3" class="node">
<title>LandingComponent</title>
<polygon fill="#ffffb3" stroke="#000000" points="3340.9902,-266 3213.0098,-266 3213.0098,-230 3340.9902,-230 3340.9902,-266"/>
<text text-anchor="middle" x="3277" y="-243.8" font-family="Times,serif" font-size="14.00" fill="#000000">LandingComponent</text>
</g>
<!-- LandingComponent&#45;&gt;AppModule -->
<g id="edge3" class="edge">
<title>LandingComponent&#45;&gt;AppModule</title>
<path fill="none" stroke="#000000" d="M3223.7372,-266.1686C3223.7372,-287.498 3223.7372,-320 3223.7372,-320 3223.7372,-320 2762.0413,-320 2762.0413,-320"/>
<polygon fill="#000000" stroke="#000000" points="2762.0413,-316.5001 2752.0413,-320 2762.0412,-323.5001 2762.0413,-316.5001"/>
</g>
<!-- NotFoundComponent -->
<g id="node4" class="node">
<title>NotFoundComponent</title>
<polygon fill="#ffffb3" stroke="#000000" points="3195.1122,-266 3056.8878,-266 3056.8878,-230 3195.1122,-230 3195.1122,-266"/>
<text text-anchor="middle" x="3126" y="-243.8" font-family="Times,serif" font-size="14.00" fill="#000000">NotFoundComponent</text>
</g>
<!-- NotFoundComponent&#45;&gt;AppModule -->
<g id="edge4" class="edge">
<title>NotFoundComponent&#45;&gt;AppModule</title>
<path fill="none" stroke="#000000" d="M3091.2372,-266.308C3091.2372,-286.1455 3091.2372,-315 3091.2372,-315 3091.2372,-315 2761.8896,-315 2761.8896,-315"/>
<polygon fill="#000000" stroke="#000000" points="2761.8896,-311.5001 2751.8896,-315 2761.8896,-318.5001 2761.8896,-311.5001"/>
</g>
<!-- ContactComponent -->
<g id="node5" class="node">
<title>ContactComponent</title>
<polygon fill="#ffffb3" stroke="#000000" points="3039.3795,-266 2914.6205,-266 2914.6205,-230 3039.3795,-230 3039.3795,-266"/>
<text text-anchor="middle" x="2977" y="-243.8" font-family="Times,serif" font-size="14.00" fill="#000000">ContactComponent</text>
</g>
<!-- ContactComponent&#45;&gt;AppModule -->
<g id="edge5" class="edge">
<title>ContactComponent&#45;&gt;AppModule</title>
<path fill="none" stroke="#000000" d="M2977,-266.2222C2977,-284.8285 2977,-311 2977,-311 2977,-311 2761.7188,-311 2761.7188,-311"/>
<polygon fill="#000000" stroke="#000000" points="2761.7188,-307.5001 2751.7188,-311 2761.7187,-314.5001 2761.7188,-307.5001"/>
</g>
<!-- VerticalPageTransitionsComponent -->
<g id="node6" class="node">
<title>VerticalPageTransitionsComponent</title>
<polygon fill="#ffffb3" stroke="#000000" points="2896.1161,-266 2679.8839,-266 2679.8839,-230 2896.1161,-230 2896.1161,-266"/>
<text text-anchor="middle" x="2788" y="-243.8" font-family="Times,serif" font-size="14.00" fill="#000000">VerticalPageTransitionsComponent</text>
</g>
<!-- VerticalPageTransitionsComponent&#45;&gt;AppModule -->
<g id="edge6" class="edge">
<title>VerticalPageTransitionsComponent&#45;&gt;AppModule</title>
<path fill="none" stroke="#000000" d="M2715.7602,-266.0109C2715.7602,-266.0109 2715.7602,-295.855 2715.7602,-295.855"/>
<polygon fill="#000000" stroke="#000000" points="2712.2602,-295.8549 2715.7602,-305.855 2719.2602,-295.855 2712.2602,-295.8549"/>
</g>
<!-- AppComponent  -->
<g id="node15" class="node">
<title>AppComponent </title>
<polygon fill="#80b1d3" stroke="#000000" points="3234.439,-407 3125.561,-407 3125.561,-371 3234.439,-371 3234.439,-407"/>
<text text-anchor="middle" x="3180" y="-384.8" font-family="Times,serif" font-size="14.00" fill="#000000">AppComponent </text>
</g>
<!-- AppModule&#45;&gt;AppComponent  -->
<g id="edge14" class="edge">
<title>AppModule&#45;&gt;AppComponent </title>
<path fill="none" stroke="#000000" stroke-dasharray="1,5" d="M2751.9581,-338C2863.7435,-338 3160.2933,-338 3160.2933,-338 3160.2933,-338 3160.2933,-360.8757 3160.2933,-360.8757"/>
<polygon fill="#000000" stroke="#000000" points="3156.7934,-360.8757 3160.2933,-370.8757 3163.7934,-360.8757 3156.7934,-360.8757"/>
</g>
<!-- AppServerModule -->
<g id="node19" class="node">
<title>AppServerModule</title>
<polygon fill="#8dd3c7" stroke="#000000" points="3767.1895,-407 3764.1895,-411 3743.1895,-411 3740.1895,-407 3646.8105,-407 3646.8105,-371 3767.1895,-371 3767.1895,-407"/>
<text text-anchor="middle" x="3707" y="-384.8" font-family="Times,serif" font-size="14.00" fill="#000000">AppServerModule</text>
</g>
<!-- AppModule&#45;&gt;AppServerModule -->
<g id="edge16" class="edge">
<title>AppModule&#45;&gt;AppServerModule</title>
<path fill="none" stroke="#000000" d="M2751.9866,-333C2894.3506,-333 3349.9151,-333 3349.9151,-333 3349.9151,-333 3349.9151,-383 3349.9151,-383 3349.9151,-383 3636.8292,-383 3636.8292,-383"/>
<polygon fill="#000000" stroke="#000000" points="3636.8292,-386.5001 3646.8292,-383 3636.8292,-379.5001 3636.8292,-386.5001"/>
</g>
<!-- BrowserModule.withServerTransition(args) -->
<g id="node8" class="node">
<title>BrowserModule.withServerTransition(args)</title>
<polygon fill="#8dd3c7" stroke="#000000" points="2156.0794,-198 2153.0794,-202 2132.0794,-202 2129.0794,-198 1893.9206,-198 1893.9206,-162 2156.0794,-162 2156.0794,-198"/>
<text text-anchor="middle" x="2025" y="-175.8" font-family="Times,serif" font-size="14.00" fill="#000000">BrowserModule.withServerTransition(args)</text>
</g>
<!-- BrowserModule.withServerTransition(args)&#45;&gt;AppModule -->
<g id="edge7" class="edge">
<title>BrowserModule.withServerTransition(args)&#45;&gt;AppModule</title>
<path fill="none" stroke="#000000" d="M2025,-198.2733C2025,-236.6253 2025,-322 2025,-322 2025,-322 2658.1813,-322 2658.1813,-322"/>
<polygon fill="#000000" stroke="#000000" points="2658.1814,-325.5001 2668.1813,-322 2658.1813,-318.5001 2658.1814,-325.5001"/>
</g>
<!-- ProjectsModule -->
<g id="node9" class="node">
<title>ProjectsModule</title>
<polygon fill="#8dd3c7" stroke="#000000" points="1660.1486,-266 1657.1486,-270 1636.1486,-270 1633.1486,-266 1555.8514,-266 1555.8514,-230 1660.1486,-230 1660.1486,-266"/>
<text text-anchor="middle" x="1608" y="-243.8" font-family="Times,serif" font-size="14.00" fill="#000000">ProjectsModule</text>
</g>
<!-- ProjectsModule&#45;&gt;AppModule -->
<g id="edge8" class="edge">
<title>ProjectsModule&#45;&gt;AppModule</title>
<path fill="none" stroke="#000000" d="M1660.3728,-257C1874.4145,-257 2671.428,-257 2671.428,-257 2671.428,-257 2671.428,-295.692 2671.428,-295.692"/>
<polygon fill="#000000" stroke="#000000" points="2667.9281,-295.6919 2671.428,-305.692 2674.9281,-295.692 2667.9281,-295.6919"/>
</g>
<!-- BrowserAnimationsModule -->
<g id="node10" class="node">
<title>BrowserAnimationsModule</title>
<polygon fill="#8dd3c7" stroke="#000000" points="1876.3019,-198 1873.3019,-202 1852.3019,-202 1849.3019,-198 1703.6981,-198 1703.6981,-162 1876.3019,-162 1876.3019,-198"/>
<text text-anchor="middle" x="1790" y="-175.8" font-family="Times,serif" font-size="14.00" fill="#000000">BrowserAnimationsModule</text>
</g>
<!-- BrowserAnimationsModule&#45;&gt;AppModule -->
<g id="edge9" class="edge">
<title>BrowserAnimationsModule&#45;&gt;AppModule</title>
<path fill="none" stroke="#000000" d="M1818.7169,-198.0251C1818.7169,-237.2783 1818.7169,-327 1818.7169,-327 1818.7169,-327 2658.207,-327 2658.207,-327"/>
<polygon fill="#000000" stroke="#000000" points="2658.207,-330.5001 2668.207,-327 2658.207,-323.5001 2658.207,-330.5001"/>
</g>
<!-- BrowserAnimationsModule&#45;&gt;ProjectsModule -->
<g id="edge47" class="edge">
<title>BrowserAnimationsModule&#45;&gt;ProjectsModule</title>
<path fill="none" stroke="#000000" d="M1761.2831,-198.0225C1761.2831,-215.3734 1761.2831,-239 1761.2831,-239 1761.2831,-239 1670.3226,-239 1670.3226,-239"/>
<polygon fill="#000000" stroke="#000000" points="1670.3227,-235.5001 1660.3226,-239 1670.3226,-242.5001 1670.3227,-235.5001"/>
</g>
<!-- HttpClientModule -->
<g id="node11" class="node">
<title>HttpClientModule</title>
<polygon fill="#8dd3c7" stroke="#000000" points="2292.1611,-198 2289.1611,-202 2268.1611,-202 2265.1611,-198 2173.8389,-198 2173.8389,-162 2292.1611,-162 2292.1611,-198"/>
<text text-anchor="middle" x="2233" y="-175.8" font-family="Times,serif" font-size="14.00" fill="#000000">HttpClientModule</text>
</g>
<!-- HttpClientModule&#45;&gt;AppModule -->
<g id="edge10" class="edge">
<title>HttpClientModule&#45;&gt;AppModule</title>
<path fill="none" stroke="#000000" d="M2233,-198.1925C2233,-235.4592 2233,-317 2233,-317 2233,-317 2658.0875,-317 2658.0875,-317"/>
<polygon fill="#000000" stroke="#000000" points="2658.0875,-320.5001 2668.0875,-317 2658.0875,-313.5001 2658.0875,-320.5001"/>
</g>
<!-- ComponentsModule -->
<g id="node12" class="node">
<title>ComponentsModule</title>
<polygon fill="#8dd3c7" stroke="#000000" points="1686.3272,-198 1683.3272,-202 1662.3272,-202 1659.3272,-198 1555.6728,-198 1555.6728,-162 1686.3272,-162 1686.3272,-198"/>
<text text-anchor="middle" x="1621" y="-175.8" font-family="Times,serif" font-size="14.00" fill="#000000">ComponentsModule</text>
</g>
<!-- ComponentsModule&#45;&gt;AppModule -->
<g id="edge11" class="edge">
<title>ComponentsModule&#45;&gt;AppModule</title>
<path fill="none" stroke="#000000" d="M1673.2437,-198.0333C1673.2437,-238.2965 1673.2437,-332 1673.2437,-332 1673.2437,-332 2658.0739,-332 2658.0739,-332"/>
<polygon fill="#000000" stroke="#000000" points="2658.0739,-335.5001 2668.0739,-332 2658.0738,-328.5001 2658.0739,-335.5001"/>
</g>
<!-- ComponentsModule&#45;&gt;ProjectsModule -->
<g id="edge48" class="edge">
<title>ComponentsModule&#45;&gt;ProjectsModule</title>
<path fill="none" stroke="#000000" d="M1637.1046,-198.2228C1637.1046,-198.2228 1637.1046,-219.7269 1637.1046,-219.7269"/>
<polygon fill="#000000" stroke="#000000" points="1633.6047,-219.7269 1637.1046,-229.7269 1640.6047,-219.727 1633.6047,-219.7269"/>
</g>
<!-- BigTitleComponent  -->
<g id="node29" class="node">
<title>BigTitleComponent </title>
<polygon fill="#fb8072" stroke="#000000" points="394.9995,-122 263.0005,-122 263.0005,-86 394.9995,-86 394.9995,-122"/>
<text text-anchor="middle" x="329" y="-99.8" font-family="Times,serif" font-size="14.00" fill="#000000">BigTitleComponent </text>
</g>
<!-- ComponentsModule&#45;&gt;BigTitleComponent  -->
<g id="edge29" class="edge">
<title>ComponentsModule&#45;&gt;BigTitleComponent </title>
<path fill="none" stroke="#000000" stroke-dasharray="5,2" d="M1574.0672,-161.8726C1574.0672,-151.2891 1574.0672,-140 1574.0672,-140 1574.0672,-140 361.4093,-140 361.4093,-140 361.4093,-140 361.4093,-132.4218 361.4093,-132.4218"/>
<polygon fill="#000000" stroke="#000000" points="364.9094,-132.4218 361.4093,-122.4218 357.9094,-132.4219 364.9094,-132.4218"/>
</g>
<!-- CardComponent  -->
<g id="node30" class="node">
<title>CardComponent </title>
<polygon fill="#fb8072" stroke="#000000" points="245.0442,-122 132.9558,-122 132.9558,-86 245.0442,-86 245.0442,-122"/>
<text text-anchor="middle" x="189" y="-99.8" font-family="Times,serif" font-size="14.00" fill="#000000">CardComponent </text>
</g>
<!-- ComponentsModule&#45;&gt;CardComponent  -->
<g id="edge30" class="edge">
<title>ComponentsModule&#45;&gt;CardComponent </title>
<path fill="none" stroke="#000000" stroke-dasharray="5,2" d="M1565.5339,-161.8903C1565.5339,-152.103 1565.5339,-142 1565.5339,-142 1565.5339,-142 189,-142 189,-142 189,-142 189,-132.1097 189,-132.1097"/>
<polygon fill="#000000" stroke="#000000" points="192.5001,-132.1096 189,-122.1097 185.5001,-132.1097 192.5001,-132.1096"/>
</g>
<!-- FooterComponent  -->
<g id="node31" class="node">
<title>FooterComponent </title>
<polygon fill="#fb8072" stroke="#000000" points="1406.8814,-122 1285.1186,-122 1285.1186,-86 1406.8814,-86 1406.8814,-122"/>
<text text-anchor="middle" x="1346" y="-99.8" font-family="Times,serif" font-size="14.00" fill="#000000">FooterComponent </text>
</g>
<!-- ComponentsModule&#45;&gt;FooterComponent  -->
<g id="edge31" class="edge">
<title>ComponentsModule&#45;&gt;FooterComponent </title>
<path fill="none" stroke="#000000" stroke-dasharray="5,2" d="M1555.6335,-180C1486.5421,-180 1387.4528,-180 1387.4528,-180 1387.4528,-180 1387.4528,-132.0109 1387.4528,-132.0109"/>
<polygon fill="#000000" stroke="#000000" points="1390.9529,-132.0109 1387.4528,-122.0109 1383.9529,-132.011 1390.9529,-132.0109"/>
</g>
<!-- HeaderComponent  -->
<g id="node32" class="node">
<title>HeaderComponent </title>
<polygon fill="#fb8072" stroke="#000000" points="1267.7436,-122 1142.2564,-122 1142.2564,-86 1267.7436,-86 1267.7436,-122"/>
<text text-anchor="middle" x="1205" y="-99.8" font-family="Times,serif" font-size="14.00" fill="#000000">HeaderComponent </text>
</g>
<!-- ComponentsModule&#45;&gt;HeaderComponent  -->
<g id="edge32" class="edge">
<title>ComponentsModule&#45;&gt;HeaderComponent </title>
<path fill="none" stroke="#000000" stroke-dasharray="5,2" d="M1616.7334,-161.9909C1616.7334,-145.9506 1616.7334,-125 1616.7334,-125 1616.7334,-125 1254.7032,-125 1254.7032,-125 1254.7032,-125 1254.7032,-124.708 1254.7032,-124.708"/>
<polygon fill="#000000" stroke="#000000" points="1258.2036,-132.0799 1254.7032,-122.08 1251.2036,-132.0802 1258.2036,-132.0799"/>
</g>
<!-- ScaleComponent  -->
<g id="node33" class="node">
<title>ScaleComponent </title>
<polygon fill="#fb8072" stroke="#000000" points="1124.6495,-122 1009.3505,-122 1009.3505,-86 1124.6495,-86 1124.6495,-122"/>
<text text-anchor="middle" x="1067" y="-99.8" font-family="Times,serif" font-size="14.00" fill="#000000">ScaleComponent </text>
</g>
<!-- ComponentsModule&#45;&gt;ScaleComponent  -->
<g id="edge33" class="edge">
<title>ComponentsModule&#45;&gt;ScaleComponent </title>
<path fill="none" stroke="#000000" stroke-dasharray="5,2" d="M1608.2001,-161.8129C1608.2001,-146.8176 1608.2001,-128 1608.2001,-128 1608.2001,-128 1067,-128 1067,-128 1067,-128 1067,-127.419 1067,-127.419"/>
<polygon fill="#000000" stroke="#000000" points="1070.5002,-132.1902 1067,-122.1903 1063.5002,-132.1903 1070.5002,-132.1902"/>
</g>
<!-- FloatingBorderPageComponent  -->
<g id="node34" class="node">
<title>FloatingBorderPageComponent </title>
<polygon fill="#fb8072" stroke="#000000" points="991.586,-122 794.414,-122 794.414,-86 991.586,-86 991.586,-122"/>
<text text-anchor="middle" x="893" y="-99.8" font-family="Times,serif" font-size="14.00" fill="#000000">FloatingBorderPageComponent </text>
</g>
<!-- ComponentsModule&#45;&gt;FloatingBorderPageComponent  -->
<g id="edge34" class="edge">
<title>ComponentsModule&#45;&gt;FloatingBorderPageComponent </title>
<path fill="none" stroke="#000000" stroke-dasharray="5,2" d="M1599.6669,-161.7542C1599.6669,-147.8228 1599.6669,-131 1599.6669,-131 1599.6669,-131 983.1089,-131 983.1089,-131 983.1089,-131 983.1089,-130.1159 983.1089,-130.1159"/>
<polygon fill="#000000" stroke="#000000" points="986.609,-132.1591 983.1089,-122.1592 979.609,-132.1592 986.609,-132.1591"/>
</g>
<!-- TechStackIconComponent  -->
<g id="node35" class="node">
<title>TechStackIconComponent </title>
<polygon fill="#fb8072" stroke="#000000" points="776.2919,-122 607.7081,-122 607.7081,-86 776.2919,-86 776.2919,-122"/>
<text text-anchor="middle" x="692" y="-99.8" font-family="Times,serif" font-size="14.00" fill="#000000">TechStackIconComponent </text>
</g>
<!-- ComponentsModule&#45;&gt;TechStackIconComponent  -->
<g id="edge35" class="edge">
<title>ComponentsModule&#45;&gt;TechStackIconComponent </title>
<path fill="none" stroke="#000000" stroke-dasharray="5,2" d="M1591.1337,-161.8196C1591.1337,-148.9618 1591.1337,-134 1591.1337,-134 1591.1337,-134 723.5402,-134 723.5402,-134 723.5402,-134 723.5402,-132.1432 723.5402,-132.1432"/>
<polygon fill="#000000" stroke="#000000" points="727.0402,-132.1432 723.5402,-122.1432 720.0402,-132.1432 727.0402,-132.1432"/>
</g>
<!-- PointNavigationComponent  -->
<g id="node36" class="node">
<title>PointNavigationComponent </title>
<polygon fill="#fb8072" stroke="#000000" points="589.1042,-122 412.8958,-122 412.8958,-86 589.1042,-86 589.1042,-122"/>
<text text-anchor="middle" x="501" y="-99.8" font-family="Times,serif" font-size="14.00" fill="#000000">PointNavigationComponent </text>
</g>
<!-- ComponentsModule&#45;&gt;PointNavigationComponent  -->
<g id="edge36" class="edge">
<title>ComponentsModule&#45;&gt;PointNavigationComponent </title>
<path fill="none" stroke="#000000" stroke-dasharray="5,2" d="M1582.6004,-161.5146C1582.6004,-149.8601 1582.6004,-137 1582.6004,-137 1582.6004,-137 540.49,-137 540.49,-137 540.49,-137 540.49,-132.0449 540.49,-132.0449"/>
<polygon fill="#000000" stroke="#000000" points="543.9901,-132.0448 540.49,-122.0449 536.9901,-132.0449 543.9901,-132.0448"/>
</g>
<!-- RoutingModule -->
<g id="node13" class="node">
<title>RoutingModule</title>
<polygon fill="#8dd3c7" stroke="#000000" points="2656.1681,-198 2653.1681,-202 2632.1681,-202 2629.1681,-198 2551.8319,-198 2551.8319,-162 2656.1681,-162 2656.1681,-198"/>
<text text-anchor="middle" x="2604" y="-175.8" font-family="Times,serif" font-size="14.00" fill="#000000">RoutingModule</text>
</g>
<!-- RoutingModule&#45;&gt;AppModule -->
<g id="edge12" class="edge">
<title>RoutingModule&#45;&gt;AppModule</title>
<path fill="none" stroke="#000000" d="M2656.4813,-193C2666.8916,-193 2674.6842,-193 2674.6842,-193 2674.6842,-193 2674.6842,-295.785 2674.6842,-295.785"/>
<polygon fill="#000000" stroke="#000000" points="2671.1843,-295.785 2674.6842,-305.785 2678.1843,-295.785 2671.1843,-295.785"/>
</g>
<!-- RouterModule  -->
<g id="node39" class="node">
<title>RouterModule </title>
<polygon fill="#fb8072" stroke="#000000" points="3748.6523,-266 3647.3477,-266 3647.3477,-230 3748.6523,-230 3748.6523,-266"/>
<text text-anchor="middle" x="3698" y="-243.8" font-family="Times,serif" font-size="14.00" fill="#000000">RouterModule </text>
</g>
<!-- RoutingModule&#45;&gt;RouterModule  -->
<g id="edge53" class="edge">
<title>RoutingModule&#45;&gt;RouterModule </title>
<path fill="none" stroke="#000000" stroke-dasharray="5,2" d="M2656.2226,-188C2863.2304,-188 3614.9183,-188 3614.9183,-188 3614.9183,-188 3614.9183,-248 3614.9183,-248 3614.9183,-248 3637.2778,-248 3637.2778,-248"/>
<polygon fill="#000000" stroke="#000000" points="3637.2778,-251.5001 3647.2778,-248 3637.2777,-244.5001 3637.2778,-251.5001"/>
</g>
<!-- ServiceWorkerModule.register(args) -->
<g id="node14" class="node">
<title>ServiceWorkerModule.register(args)</title>
<polygon fill="#8dd3c7" stroke="#000000" points="2533.3954,-198 2530.3954,-202 2509.3954,-202 2506.3954,-198 2310.6046,-198 2310.6046,-162 2533.3954,-162 2533.3954,-198"/>
<text text-anchor="middle" x="2422" y="-175.8" font-family="Times,serif" font-size="14.00" fill="#000000">ServiceWorkerModule.register(args)</text>
</g>
<!-- ServiceWorkerModule.register(args)&#45;&gt;AppModule -->
<g id="edge13" class="edge">
<title>ServiceWorkerModule.register(args)&#45;&gt;AppModule</title>
<path fill="none" stroke="#000000" d="M2422,-198.0773C2422,-234.2287 2422,-312 2422,-312 2422,-312 2658.1223,-312 2658.1223,-312"/>
<polygon fill="#000000" stroke="#000000" points="2658.1224,-315.5001 2668.1223,-312 2658.1223,-308.5001 2658.1224,-315.5001"/>
</g>
<!-- SkillsService -->
<g id="node16" class="node">
<title>SkillsService</title>
<ellipse fill="#fdb462" stroke="#000000" cx="1470" cy="-248" rx="61.9905" ry="18"/>
<text text-anchor="middle" x="1470" y="-243.8" font-family="Times,serif" font-size="14.00" fill="#000000">SkillsService</text>
</g>
<!-- SkillsService&#45;&gt;AppModule -->
<g id="edge15" class="edge">
<title>SkillsService&#45;&gt;AppModule</title>
<path fill="none" stroke="#000000" d="M1470,-266.0105C1470,-292.0165 1470,-337 1470,-337 1470,-337 2658.0325,-337 2658.0325,-337"/>
<polygon fill="#000000" stroke="#000000" points="2658.0325,-340.5001 2668.0325,-337 2658.0324,-333.5001 2658.0325,-340.5001"/>
</g>
<!-- ServerModule -->
<g id="node17" class="node">
<title>ServerModule</title>
<polygon fill="#8dd3c7" stroke="#000000" points="3921.0828,-342 3918.0828,-346 3897.0828,-346 3894.0828,-342 3824.9172,-342 3824.9172,-306 3921.0828,-306 3921.0828,-342"/>
<text text-anchor="middle" x="3873" y="-319.8" font-family="Times,serif" font-size="14.00" fill="#000000">ServerModule</text>
</g>
<!-- ServerModule&#45;&gt;AppServerModule -->
<g id="edge17" class="edge">
<title>ServerModule&#45;&gt;AppServerModule</title>
<path fill="none" stroke="#000000" d="M3873,-342.1061C3873,-361.3391 3873,-389 3873,-389 3873,-389 3777.3994,-389 3777.3994,-389"/>
<polygon fill="#000000" stroke="#000000" points="3777.3994,-385.5001 3767.3994,-389 3777.3994,-392.5001 3777.3994,-385.5001"/>
</g>
<!-- ModuleMapLoaderModule -->
<g id="node18" class="node">
<title>ModuleMapLoaderModule</title>
<polygon fill="#8dd3c7" stroke="#000000" points="3807.4017,-342 3804.4017,-346 3783.4017,-346 3780.4017,-342 3638.5983,-342 3638.5983,-306 3807.4017,-306 3807.4017,-342"/>
<text text-anchor="middle" x="3723" y="-319.8" font-family="Times,serif" font-size="14.00" fill="#000000">ModuleMapLoaderModule</text>
</g>
<!-- ModuleMapLoaderModule&#45;&gt;AppServerModule -->
<g id="edge18" class="edge">
<title>ModuleMapLoaderModule&#45;&gt;AppServerModule</title>
<path fill="none" stroke="#000000" d="M3707,-342.1061C3707,-342.1061 3707,-360.991 3707,-360.991"/>
<polygon fill="#000000" stroke="#000000" points="3703.5001,-360.9909 3707,-370.991 3710.5001,-360.991 3703.5001,-360.9909"/>
</g>
<!-- AppServerModule&#45;&gt;AppComponent  -->
<g id="edge19" class="edge">
<title>AppServerModule&#45;&gt;AppComponent </title>
<path fill="none" stroke="#000000" stroke-dasharray="1,5" d="M3646.8032,-395C3646.8032,-395 3244.6567,-395 3244.6567,-395"/>
<polygon fill="#000000" stroke="#000000" points="3244.6568,-391.5001 3234.6567,-395 3244.6567,-398.5001 3244.6568,-391.5001"/>
</g>
<!-- BigTitleComponent -->
<g id="node20" class="node">
<title>BigTitleComponent</title>
<polygon fill="#ffffb3" stroke="#000000" points="1684.9986,-122 1557.0014,-122 1557.0014,-86 1684.9986,-86 1684.9986,-122"/>
<text text-anchor="middle" x="1621" y="-99.8" font-family="Times,serif" font-size="14.00" fill="#000000">BigTitleComponent</text>
</g>
<!-- BigTitleComponent&#45;&gt;ComponentsModule -->
<g id="edge20" class="edge">
<title>BigTitleComponent&#45;&gt;ComponentsModule</title>
<path fill="none" stroke="#000000" d="M1625.2666,-122.0109C1625.2666,-122.0109 1625.2666,-151.855 1625.2666,-151.855"/>
<polygon fill="#000000" stroke="#000000" points="1621.7667,-151.8549 1625.2666,-161.855 1628.7667,-151.855 1621.7667,-151.8549"/>
</g>
<!-- CardComponent -->
<g id="node21" class="node">
<title>CardComponent</title>
<polygon fill="#ffffb3" stroke="#000000" points="1539.0452,-122 1430.9548,-122 1430.9548,-86 1539.0452,-86 1539.0452,-122"/>
<text text-anchor="middle" x="1485" y="-99.8" font-family="Times,serif" font-size="14.00" fill="#000000">CardComponent</text>
</g>
<!-- CardComponent&#45;&gt;ComponentsModule -->
<g id="edge21" class="edge">
<title>CardComponent&#45;&gt;ComponentsModule</title>
<path fill="none" stroke="#000000" d="M1536.8465,-122.308C1536.8465,-142.1455 1536.8465,-171 1536.8465,-171 1536.8465,-171 1545.5229,-171 1545.5229,-171"/>
<polygon fill="#000000" stroke="#000000" points="1545.5229,-174.5001 1555.5229,-171 1545.5228,-167.5001 1545.5229,-174.5001"/>
</g>
<!-- FooterComponent -->
<g id="node22" class="node">
<title>FooterComponent</title>
<polygon fill="#ffffb3" stroke="#000000" points="2677.8809,-122 2560.1191,-122 2560.1191,-86 2677.8809,-86 2677.8809,-122"/>
<text text-anchor="middle" x="2619" y="-99.8" font-family="Times,serif" font-size="14.00" fill="#000000">FooterComponent</text>
</g>
<!-- FooterComponent&#45;&gt;ComponentsModule -->
<g id="edge22" class="edge">
<title>FooterComponent&#45;&gt;ComponentsModule</title>
<path fill="none" stroke="#000000" d="M2608.1967,-122.2396C2608.1967,-137.5706 2608.1967,-157 2608.1967,-157 2608.1967,-157 1667.9328,-157 1667.9328,-157 1667.9328,-157 1667.9328,-157.4878 1667.9328,-157.4878"/>
<polygon fill="#000000" stroke="#000000" points="1664.433,-151.8776 1667.9328,-161.8777 1671.433,-151.8778 1664.433,-151.8776"/>
</g>
<!-- HeaderComponent -->
<g id="node23" class="node">
<title>HeaderComponent</title>
<polygon fill="#ffffb3" stroke="#000000" points="2541.7437,-122 2420.2563,-122 2420.2563,-86 2541.7437,-86 2541.7437,-122"/>
<text text-anchor="middle" x="2481" y="-99.8" font-family="Times,serif" font-size="14.00" fill="#000000">HeaderComponent</text>
</g>
<!-- HeaderComponent&#45;&gt;ComponentsModule -->
<g id="edge23" class="edge">
<title>HeaderComponent&#45;&gt;ComponentsModule</title>
<path fill="none" stroke="#000000" d="M2476.6629,-122.0511C2476.6629,-136.373 2476.6629,-154 2476.6629,-154 2476.6629,-154 1659.3996,-154 1659.3996,-154 1659.3996,-154 1659.3996,-154.7942 1659.3996,-154.7942"/>
<polygon fill="#000000" stroke="#000000" points="1655.8997,-151.9421 1659.3996,-161.9421 1662.8997,-151.9422 1655.8997,-151.9421"/>
</g>
<!-- ScaleComponent -->
<g id="node24" class="node">
<title>ScaleComponent</title>
<polygon fill="#ffffb3" stroke="#000000" points="2401.6499,-122 2290.3501,-122 2290.3501,-86 2401.6499,-86 2401.6499,-122"/>
<text text-anchor="middle" x="2346" y="-99.8" font-family="Times,serif" font-size="14.00" fill="#000000">ScaleComponent</text>
</g>
<!-- ScaleComponent&#45;&gt;ComponentsModule -->
<g id="edge24" class="edge">
<title>ScaleComponent&#45;&gt;ComponentsModule</title>
<path fill="none" stroke="#000000" d="M2301.5664,-122.037C2301.5664,-135.2913 2301.5664,-151 2301.5664,-151 2301.5664,-151 1650.8663,-151 1650.8663,-151 1650.8663,-151 1650.8663,-152.0799 1650.8663,-152.0799"/>
<polygon fill="#000000" stroke="#000000" points="1647.3664,-151.7985 1650.8663,-161.7985 1654.3664,-151.7986 1647.3664,-151.7985"/>
</g>
<!-- FloatingBorderPageComponent -->
<g id="node25" class="node">
<title>FloatingBorderPageComponent</title>
<polygon fill="#ffffb3" stroke="#000000" points="2272.0856,-122 2077.9144,-122 2077.9144,-86 2272.0856,-86 2272.0856,-122"/>
<text text-anchor="middle" x="2175" y="-99.8" font-family="Times,serif" font-size="14.00" fill="#000000">FloatingBorderPageComponent</text>
</g>
<!-- FloatingBorderPageComponent&#45;&gt;ComponentsModule -->
<g id="edge25" class="edge">
<title>FloatingBorderPageComponent&#45;&gt;ComponentsModule</title>
<path fill="none" stroke="#000000" d="M2116.9985,-122.1505C2116.9985,-134.2708 2116.9985,-148 2116.9985,-148 2116.9985,-148 1642.3331,-148 1642.3331,-148 1642.3331,-148 1642.3331,-151.7566 1642.3331,-151.7566"/>
<polygon fill="#000000" stroke="#000000" points="1638.8332,-151.7566 1642.3331,-161.7566 1645.8332,-151.7566 1638.8332,-151.7566"/>
</g>
<!-- TechStackIconComponent -->
<g id="node26" class="node">
<title>TechStackIconComponent</title>
<polygon fill="#ffffb3" stroke="#000000" points="2059.7921,-122 1894.2079,-122 1894.2079,-86 2059.7921,-86 2059.7921,-122"/>
<text text-anchor="middle" x="1977" y="-99.8" font-family="Times,serif" font-size="14.00" fill="#000000">TechStackIconComponent</text>
</g>
<!-- TechStackIconComponent&#45;&gt;ComponentsModule -->
<g id="edge26" class="edge">
<title>TechStackIconComponent&#45;&gt;ComponentsModule</title>
<path fill="none" stroke="#000000" d="M1977,-122.1025C1977,-133.0859 1977,-145 1977,-145 1977,-145 1633.7999,-145 1633.7999,-145 1633.7999,-145 1633.7999,-151.68 1633.7999,-151.68"/>
<polygon fill="#000000" stroke="#000000" points="1630.3,-151.6799 1633.7999,-161.68 1637.3,-151.68 1630.3,-151.6799"/>
</g>
<!-- PointNavigationComponent -->
<g id="node27" class="node">
<title>PointNavigationComponent</title>
<polygon fill="#ffffb3" stroke="#000000" points="1876.6038,-122 1703.3962,-122 1703.3962,-86 1876.6038,-86 1876.6038,-122"/>
<text text-anchor="middle" x="1790" y="-99.8" font-family="Times,serif" font-size="14.00" fill="#000000">PointNavigationComponent</text>
</g>
<!-- PointNavigationComponent&#45;&gt;ComponentsModule -->
<g id="edge27" class="edge">
<title>PointNavigationComponent&#45;&gt;ComponentsModule</title>
<path fill="none" stroke="#000000" d="M1703.2536,-104C1698.0144,-104 1694.8058,-104 1694.8058,-104 1694.8058,-104 1694.8058,-180 1694.8058,-180 1694.8058,-180 1693.9591,-180 1693.9591,-180"/>
<polygon fill="#000000" stroke="#000000" points="1696.3393,-176.5001 1686.3393,-180 1696.3392,-183.5001 1696.3393,-176.5001"/>
</g>
<!-- CommonModule -->
<g id="node28" class="node">
<title>CommonModule</title>
<polygon fill="#8dd3c7" stroke="#000000" points="2813.6681,-122 2810.6681,-126 2789.6681,-126 2786.6681,-122 2702.3319,-122 2702.3319,-86 2813.6681,-86 2813.6681,-122"/>
<text text-anchor="middle" x="2758" y="-99.8" font-family="Times,serif" font-size="14.00" fill="#000000">CommonModule</text>
</g>
<!-- CommonModule&#45;&gt;ProjectsModule -->
<g id="edge46" class="edge">
<title>CommonModule&#45;&gt;ProjectsModule</title>
<path fill="none" stroke="#000000" d="M2769.1668,-122.4331C2769.1668,-150.8213 2769.1668,-202 2769.1668,-202 2769.1668,-202 1648.7143,-202 1648.7143,-202 1648.7143,-202 1648.7143,-219.8196 1648.7143,-219.8196"/>
<polygon fill="#000000" stroke="#000000" points="1645.2144,-219.8195 1648.7143,-229.8196 1652.2144,-219.8196 1645.2144,-219.8195"/>
</g>
<!-- CommonModule&#45;&gt;ComponentsModule -->
<g id="edge28" class="edge">
<title>CommonModule&#45;&gt;ComponentsModule</title>
<path fill="none" stroke="#000000" d="M2724.4997,-122.027C2724.4997,-138.3976 2724.4997,-160 2724.4997,-160 2724.4997,-160 1676.4661,-160 1676.4661,-160 1676.4661,-160 1676.4661,-160.1846 1676.4661,-160.1846"/>
<polygon fill="#000000" stroke="#000000" points="1672.9667,-151.8455 1676.4661,-161.8457 1679.9667,-151.8459 1672.9667,-151.8455"/>
</g>
<!-- CommonModule&#45;&gt;RoutingModule -->
<g id="edge51" class="edge">
<title>CommonModule&#45;&gt;RoutingModule</title>
<path fill="none" stroke="#000000" d="M2746.8332,-122.1289C2746.8332,-142.5724 2746.8332,-173 2746.8332,-173 2746.8332,-173 2666.3748,-173 2666.3748,-173"/>
<polygon fill="#000000" stroke="#000000" points="2666.3748,-169.5001 2656.3748,-173 2666.3747,-176.5001 2666.3748,-169.5001"/>
</g>
<!-- ProjectsRoutingModule -->
<g id="node38" class="node">
<title>ProjectsRoutingModule</title>
<polygon fill="#8dd3c7" stroke="#000000" points="3780.766,-198 3777.766,-202 3756.766,-202 3753.766,-198 3631.234,-198 3631.234,-162 3780.766,-162 3780.766,-198"/>
<text text-anchor="middle" x="3706" y="-175.8" font-family="Times,serif" font-size="14.00" fill="#000000">ProjectsRoutingModule</text>
</g>
<!-- CommonModule&#45;&gt;ProjectsRoutingModule -->
<g id="edge37" class="edge">
<title>CommonModule&#45;&gt;ProjectsRoutingModule</title>
<path fill="none" stroke="#000000" d="M2791.5003,-122.1686C2791.5003,-141.0898 2791.5003,-168 2791.5003,-168 2791.5003,-168 3621.1626,-168 3621.1626,-168"/>
<polygon fill="#000000" stroke="#000000" points="3621.1627,-171.5001 3631.1626,-168 3621.1626,-164.5001 3621.1627,-171.5001"/>
</g>
<!-- RouterModule.forChild(args) -->
<g id="node37" class="node">
<title>RouterModule.forChild(args)</title>
<polygon fill="#8dd3c7" stroke="#000000" points="3820.7323,-122 3817.7323,-126 3796.7323,-126 3793.7323,-122 3639.2677,-122 3639.2677,-86 3820.7323,-86 3820.7323,-122"/>
<text text-anchor="middle" x="3730" y="-99.8" font-family="Times,serif" font-size="14.00" fill="#000000">RouterModule.forChild(args)</text>
</g>
<!-- RouterModule.forChild(args)&#45;&gt;ProjectsRoutingModule -->
<g id="edge38" class="edge">
<title>RouterModule.forChild(args)&#45;&gt;ProjectsRoutingModule</title>
<path fill="none" stroke="#000000" d="M3710.1334,-122.0109C3710.1334,-122.0109 3710.1334,-151.855 3710.1334,-151.855"/>
<polygon fill="#000000" stroke="#000000" points="3706.6335,-151.8549 3710.1334,-161.855 3713.6335,-151.855 3706.6335,-151.8549"/>
</g>
<!-- ProjectsRoutingModule&#45;&gt;ProjectsModule -->
<g id="edge49" class="edge">
<title>ProjectsRoutingModule&#45;&gt;ProjectsModule</title>
<path fill="none" stroke="#000000" d="M3630.9363,-183C3391.6145,-183 2662.2528,-183 2662.2528,-183 2662.2528,-183 2662.2528,-248 2662.2528,-248 2662.2528,-248 1670.2806,-248 1670.2806,-248"/>
<polygon fill="#000000" stroke="#000000" points="1670.2806,-244.5001 1660.2806,-248 1670.2805,-251.5001 1670.2806,-244.5001"/>
</g>
<!-- ProjectsRoutingModule&#45;&gt;RouterModule  -->
<g id="edge39" class="edge">
<title>ProjectsRoutingModule&#45;&gt;RouterModule </title>
<path fill="none" stroke="#000000" stroke-dasharray="5,2" d="M3698,-198.2228C3698,-198.2228 3698,-219.7269 3698,-219.7269"/>
<polygon fill="#000000" stroke="#000000" points="3694.5001,-219.7269 3698,-229.7269 3701.5001,-219.727 3694.5001,-219.7269"/>
</g>
<!-- ProjectsComponent -->
<g id="node40" class="node">
<title>ProjectsComponent</title>
<polygon fill="#ffffb3" stroke="#000000" points="1368.4313,-198 1241.5687,-198 1241.5687,-162 1368.4313,-162 1368.4313,-198"/>
<text text-anchor="middle" x="1305" y="-175.8" font-family="Times,serif" font-size="14.00" fill="#000000">ProjectsComponent</text>
</g>
<!-- ProjectsComponent&#45;&gt;ProjectsModule -->
<g id="edge40" class="edge">
<title>ProjectsComponent&#45;&gt;ProjectsModule</title>
<path fill="none" stroke="#000000" d="M1368.2976,-189C1436.2048,-189 1534.4209,-189 1534.4209,-189 1534.4209,-189 1534.4209,-248 1534.4209,-248 1534.4209,-248 1545.703,-248 1545.703,-248"/>
<polygon fill="#000000" stroke="#000000" points="1545.703,-251.5001 1555.703,-248 1545.703,-244.5001 1545.703,-251.5001"/>
</g>
<!-- HorizontalPageTransitionsComponent -->
<g id="node41" class="node">
<title>HorizontalPageTransitionsComponent</title>
<polygon fill="#ffffb3" stroke="#000000" points="1223.9015,-198 992.0985,-198 992.0985,-162 1223.9015,-162 1223.9015,-198"/>
<text text-anchor="middle" x="1108" y="-175.8" font-family="Times,serif" font-size="14.00" fill="#000000">HorizontalPageTransitionsComponent</text>
</g>
<!-- HorizontalPageTransitionsComponent&#45;&gt;ProjectsModule -->
<g id="edge41" class="edge">
<title>HorizontalPageTransitionsComponent&#45;&gt;ProjectsModule</title>
<path fill="none" stroke="#000000" d="M1108,-198.0579C1108,-202.4945 1108,-206 1108,-206 1108,-206 1625.4949,-206 1625.4949,-206 1625.4949,-206 1625.4949,-219.9445 1625.4949,-219.9445"/>
<polygon fill="#000000" stroke="#000000" points="1621.995,-219.9444 1625.4949,-229.9445 1628.995,-219.9445 1621.995,-219.9444"/>
</g>
<!-- TrackerComponent -->
<g id="node42" class="node">
<title>TrackerComponent</title>
<polygon fill="#ffffb3" stroke="#000000" points="974.3501,-198 849.6499,-198 849.6499,-162 974.3501,-162 974.3501,-198"/>
<text text-anchor="middle" x="912" y="-175.8" font-family="Times,serif" font-size="14.00" fill="#000000">TrackerComponent</text>
</g>
<!-- TrackerComponent&#45;&gt;ProjectsModule -->
<g id="edge42" class="edge">
<title>TrackerComponent&#45;&gt;ProjectsModule</title>
<path fill="none" stroke="#000000" d="M912,-198.1432C912,-204.4611 912,-210 912,-210 912,-210 1613.8852,-210 1613.8852,-210 1613.8852,-210 1613.8852,-219.8903 1613.8852,-219.8903"/>
<polygon fill="#000000" stroke="#000000" points="1610.3853,-219.8903 1613.8852,-229.8903 1617.3853,-219.8904 1610.3853,-219.8903"/>
</g>
<!-- HugeTelecomComponent -->
<g id="node43" class="node">
<title>HugeTelecomComponent</title>
<polygon fill="#ffffb3" stroke="#000000" points="831.1316,-198 670.8684,-198 670.8684,-162 831.1316,-162 831.1316,-198"/>
<text text-anchor="middle" x="751" y="-175.8" font-family="Times,serif" font-size="14.00" fill="#000000">HugeTelecomComponent</text>
</g>
<!-- HugeTelecomComponent&#45;&gt;ProjectsModule -->
<g id="edge43" class="edge">
<title>HugeTelecomComponent&#45;&gt;ProjectsModule</title>
<path fill="none" stroke="#000000" d="M751,-198.1944C751,-206.2782 751,-214 751,-214 751,-214 1602.2754,-214 1602.2754,-214 1602.2754,-214 1602.2754,-219.8056 1602.2754,-219.8056"/>
<polygon fill="#000000" stroke="#000000" points="1598.7755,-219.8055 1602.2754,-229.8056 1605.7755,-219.8056 1598.7755,-219.8055"/>
</g>
<!-- FrigginCoffeeComponent -->
<g id="node44" class="node">
<title>FrigginCoffeeComponent</title>
<polygon fill="#ffffb3" stroke="#000000" points="652.1442,-198 491.8558,-198 491.8558,-162 652.1442,-162 652.1442,-198"/>
<text text-anchor="middle" x="572" y="-175.8" font-family="Times,serif" font-size="14.00" fill="#000000">FrigginCoffeeComponent</text>
</g>
<!-- FrigginCoffeeComponent&#45;&gt;ProjectsModule -->
<g id="edge44" class="edge">
<title>FrigginCoffeeComponent&#45;&gt;ProjectsModule</title>
<path fill="none" stroke="#000000" d="M572,-198.1097C572,-207.897 572,-218 572,-218 572,-218 1590.6657,-218 1590.6657,-218 1590.6657,-218 1590.6657,-219.8568 1590.6657,-219.8568"/>
<polygon fill="#000000" stroke="#000000" points="1587.1658,-219.8568 1590.6657,-229.8568 1594.1658,-219.8568 1587.1658,-219.8568"/>
</g>
<!-- DvtInternalComponent -->
<g id="node45" class="node">
<title>DvtInternalComponent</title>
<polygon fill="#ffffb3" stroke="#000000" points="473.8613,-198 328.1387,-198 328.1387,-162 473.8613,-162 473.8613,-198"/>
<text text-anchor="middle" x="401" y="-175.8" font-family="Times,serif" font-size="14.00" fill="#000000">DvtInternalComponent</text>
</g>
<!-- DvtInternalComponent&#45;&gt;ProjectsModule -->
<g id="edge45" class="edge">
<title>DvtInternalComponent&#45;&gt;ProjectsModule</title>
<path fill="none" stroke="#000000" d="M401,-198.0555C401,-209.439 401,-222 401,-222 401,-222 1579.056,-222 1579.056,-222 1579.056,-222 1579.056,-222.7942 1579.056,-222.7942"/>
<polygon fill="#000000" stroke="#000000" points="1575.5562,-219.9421 1579.056,-229.9421 1582.5562,-219.9422 1575.5562,-219.9421"/>
</g>
<!-- ProjectPageStateManagerService -->
<g id="node46" class="node">
<title>ProjectPageStateManagerService</title>
<ellipse fill="#fdb462" stroke="#000000" cx="164" cy="-180" rx="139.9793" ry="18"/>
<text text-anchor="middle" x="164" y="-175.8" font-family="Times,serif" font-size="14.00" fill="#000000">ProjectPageStateManagerService</text>
</g>
<!-- ProjectPageStateManagerService&#45;&gt;ProjectsModule -->
<g id="edge50" class="edge">
<title>ProjectPageStateManagerService&#45;&gt;ProjectsModule</title>
<path fill="none" stroke="#000000" d="M164,-198.1804C164,-211.0382 164,-226 164,-226 164,-226 1567.4463,-226 1567.4463,-226 1567.4463,-226 1567.4463,-226.3832 1567.4463,-226.3832"/>
<polygon fill="#000000" stroke="#000000" points="1563.9466,-219.832 1567.4463,-229.8321 1570.9466,-219.8322 1563.9466,-219.832"/>
</g>
<!-- RouterModule.forRoot(args) -->
<g id="node47" class="node">
<title>RouterModule.forRoot(args)</title>
<polygon fill="#8dd3c7" stroke="#000000" points="3031.8419,-122 3028.8419,-126 3007.8419,-126 3004.8419,-122 2854.1581,-122 2854.1581,-86 3031.8419,-86 3031.8419,-122"/>
<text text-anchor="middle" x="2943" y="-99.8" font-family="Times,serif" font-size="14.00" fill="#000000">RouterModule.forRoot(args)</text>
</g>
<!-- RouterModule.forRoot(args)&#45;&gt;RoutingModule -->
<g id="edge52" class="edge">
<title>RouterModule.forRoot(args)&#45;&gt;RoutingModule</title>
<path fill="none" stroke="#000000" d="M2875.3186,-122.2921C2875.3186,-144.2057 2875.3186,-178 2875.3186,-178 2875.3186,-178 2666.3129,-178 2666.3129,-178"/>
<polygon fill="#000000" stroke="#000000" points="2666.313,-174.5001 2656.3129,-178 2666.3129,-181.5001 2666.313,-174.5001"/>
</g>
</g>
</svg>
